<svg width="30" height="30" viewBox="0 0 30 30" fill="none" xmlns="http://www.w3.org/2000/svg">
<path d="M0 2.03509V4.09072L0.622304 4.31146C0.961742 4.42873 2.17806 4.86331 3.32367 5.2634C4.46927 5.67039 5.53709 6.04978 5.68559 6.09807L5.96139 6.19464L5.82703 6.04288C5.68559 5.87733 5.14815 5.31168 4.34905 4.47701C4.08033 4.19419 3.82575 3.92517 3.78332 3.88378C3.74797 3.83549 3.34488 3.41471 2.8923 2.94564C2.44678 2.47656 1.63355 1.6212 1.0961 1.05556C0.551587 0.483014 0.0848596 0.00704479 0.0565731 0.000146389C0.0282865 -0.0136499 0 0.903798 0 2.03509Z" fill="#00E3A5"/>
<path d="M0.141479 4.56654C0.141479 4.58723 0.311199 5.02871 0.523348 5.55296C0.728425 6.07722 0.983004 6.73254 1.08908 7.00157C1.22344 7.34647 1.32244 7.50513 1.40023 7.50513C1.46387 7.50513 1.9801 7.40855 2.54583 7.29818C3.11157 7.18092 4.03088 6.99467 4.59661 6.8774C5.74221 6.64286 5.89072 6.60837 5.85536 6.56699C5.83414 6.55319 4.98555 6.24277 3.95309 5.88407C2.9277 5.51847 1.97303 5.18047 1.83867 5.12528C1.70431 5.077 1.3083 4.93214 0.954717 4.80797C0.608207 4.6907 0.275841 4.57343 0.233411 4.55964C0.183909 4.53894 0.141479 4.53894 0.141479 4.56654Z" fill="#00E3A5"/>
<path d="M4.41965 8.00881C1.27985 9.63677 1.20206 9.67815 1.22328 9.71954C1.23035 9.74713 2.24159 10.7681 3.46498 11.989L5.69255 14.2102L5.74205 13.8791C5.77034 13.6928 5.89055 12.534 6.01077 11.2992C6.13099 10.0644 6.27949 8.62964 6.33607 8.11229C6.44921 7.01549 6.44921 7.02239 6.38557 7.02239C6.35021 7.02239 5.47333 7.46386 4.41965 8.00881Z" fill="#00E3A5"/>
<path d="M3.16111 7.53278C2.19937 7.73282 1.40028 7.91217 1.37906 7.93287C1.32956 7.98115 1.12448 9.09175 1.1457 9.19522C1.15984 9.2504 1.66193 9.02277 2.6166 8.5261C3.41569 8.11222 4.335 7.63625 4.66737 7.47069C5.07045 7.26375 5.21189 7.16718 5.09167 7.16718C4.99267 7.16718 4.12993 7.33273 3.16111 7.53278Z" fill="#00E3A5"/>
<path d="M0.961696 10.1195C0.947553 10.1402 0.813192 10.8645 0.664688 11.7199L0.395966 13.2719L0.898052 14.4101C1.18092 15.031 1.76786 16.3485 2.21338 17.3349C2.65889 18.3214 3.25291 19.6389 3.5287 20.2666C3.81156 20.8943 4.11564 21.5566 4.2005 21.7497C4.29244 21.936 4.54701 22.5154 4.77331 23.0259C4.9996 23.5363 5.20468 23.9847 5.23296 24.0123C5.26125 24.0399 5.49461 23.4673 5.76333 22.7361C6.02499 22.0049 6.421 20.8943 6.64729 20.2666C6.87358 19.6389 7.07866 19.0663 7.09987 18.9836C7.1423 18.8456 6.9938 18.3834 6.22299 16.2657C6.01791 15.7139 5.82698 15.162 5.79162 15.0448C5.69262 14.7136 5.67848 14.6999 2.91347 11.9751C1.85979 10.9266 0.975839 10.0919 0.961696 10.1195Z" fill="#00E3A5"/>
<path d="M0.353607 19.17C0.353607 23.3158 0.36775 24.0539 0.45261 24.1229C0.622329 24.2608 4.32787 26.4061 4.39151 26.4061C4.42687 26.4061 4.45515 26.3923 4.45515 26.3854C4.45515 26.3716 4.59659 25.9646 4.77338 25.4887L5.08453 24.6126L4.90774 24.2194C4.80874 23.9987 4.6673 23.6952 4.59659 23.5434C4.52587 23.3917 3.95307 22.1155 3.32369 20.7152C2.69432 19.308 2.10737 18.0042 2.01544 17.818C1.93058 17.6248 1.56286 16.8178 1.2022 16.0107C0.848622 15.2036 0.509183 14.4931 0.45261 14.4241C0.374822 14.3207 0.360679 15.0381 0.353607 19.17Z" fill="#00E3A5"/>
<path d="M29.7861 0.268964C29.7366 0.337945 29.3264 0.772525 28.8809 1.2416C28.4354 1.71067 28.0323 2.12455 27.997 2.16594C27.9546 2.20733 27.5444 2.64191 27.0777 3.13857C26.6109 3.62834 26.0381 4.23537 25.8048 4.4837C24.942 5.38735 24.3834 5.97369 24.2137 6.15994L24.0369 6.35999L24.2137 6.28411C24.3551 6.22892 27.905 4.95967 29.5527 4.38713L29.977 4.23537L29.9983 2.18664C30.0053 0.910487 29.9912 0.1379 29.9488 0.1379C29.9063 0.1379 29.8356 0.193085 29.7861 0.268964Z" fill="#00E3A5"/>
<path d="M29.6587 4.74574C29.4749 4.80093 26.9362 5.70458 25.5006 6.22193C24.7581 6.49096 24.157 6.72549 24.1711 6.74619C24.2277 6.79448 28.4636 7.65674 28.6616 7.65674C28.7394 7.65674 28.8243 7.51188 28.9374 7.18767C29.0294 6.93244 29.2627 6.29781 29.4537 5.76666C29.6517 5.2424 29.8002 4.78713 29.786 4.75954C29.7719 4.73194 29.7153 4.72505 29.6587 4.74574Z" fill="#00E3A5"/>
<path d="M23.5772 7.33254C23.5772 7.42222 23.6055 7.73953 23.6479 8.04305C23.6833 8.33967 23.7611 9.08466 23.8247 9.69169C24.051 12.037 24.2914 14.3755 24.3127 14.3962C24.3339 14.4169 28.7607 10.0159 28.789 9.94003C28.8102 9.89864 23.7186 7.17389 23.6196 7.17389C23.5984 7.17389 23.5772 7.24977 23.5772 7.33254Z" fill="#00E3A5"/>
<path d="M24.7439 7.29813C24.8075 7.35332 25.6491 7.80859 27.6786 8.88469C27.9332 9.01576 28.308 9.2158 28.5131 9.33307C28.7181 9.44344 28.902 9.51932 28.9162 9.50552C28.9657 9.45724 28.7394 8.18799 28.6686 8.11901C28.605 8.05002 28.209 7.96035 26.3704 7.59475C25.5925 7.43609 24.8924 7.29123 24.8146 7.27054C24.7227 7.24295 24.6944 7.24984 24.7439 7.29813Z" fill="#00E3A5"/>
<path d="M26.6816 12.6027L24.3126 14.9343L23.9166 16.0379C23.6974 16.645 23.365 17.5555 23.1811 18.066C22.7993 19.1352 22.7639 18.7903 23.4711 20.7287C23.6903 21.3357 24.0085 22.2186 24.1782 22.6946C24.7652 24.3433 24.7227 24.2398 24.8005 24.1087C24.8359 24.0397 25.0975 23.4672 25.3804 22.8395C25.6633 22.2117 26.4907 20.3769 27.219 18.7627C27.9474 17.1485 28.7819 15.2861 29.0789 14.6238L29.6163 13.4236L29.3759 12.0026C29.2486 11.2231 29.1213 10.5195 29.1001 10.4298C29.0647 10.2918 28.7677 10.5609 26.6816 12.6027Z" fill="#00E3A5"/>
<path d="M29.4537 14.7066C29.383 14.8722 28.9657 15.7965 28.5273 16.7623C28.0959 17.728 27.5302 18.9834 27.2756 19.556C27.0211 20.1216 26.7028 20.8183 26.5755 21.0943C26.4412 21.3771 26.3351 21.6116 26.3351 21.6254C26.3351 21.6392 26.0169 22.3497 25.6279 23.212L24.9208 24.7778L25.1683 25.4746C25.5219 26.4541 25.5643 26.5576 25.6209 26.5576C25.6492 26.5576 26.0522 26.3368 26.519 26.0678C26.9786 25.7988 27.8767 25.2814 28.5132 24.9227L29.6588 24.2674V19.3421C29.6588 16.6312 29.6446 14.4169 29.6234 14.4169C29.6022 14.4169 29.5244 14.548 29.4537 14.7066Z" fill="#00E3A5"/>
<path d="M7.04126 7.34705C7.04126 7.37464 7.42313 8.2645 7.88278 9.32681C8.34244 10.3822 9.17689 12.2861 9.72848 13.5553C10.2801 14.8246 11.2347 17.0113 11.8429 18.4185C12.4581 19.8188 13.0451 21.1777 13.1582 21.433C13.2643 21.6951 13.3774 21.902 13.4057 21.902C13.434 21.902 13.7947 21.6399 14.2119 21.3157C14.6574 20.9708 15.0039 20.7501 15.0534 20.7776C15.1029 20.8052 15.4494 21.0674 15.8313 21.364C16.2132 21.6606 16.5455 21.902 16.5738 21.902C16.6021 21.902 16.8425 21.4123 17.0971 20.8121C17.3588 20.2189 18.1791 18.3288 18.9216 16.625C20.5552 12.8724 21.6159 10.4512 22.3867 8.67148C22.7049 7.94029 22.9524 7.32636 22.9383 7.31256C22.9171 7.29187 21.8705 7.93339 18.7448 9.89245C17.281 10.803 16.199 11.4721 15.5909 11.8446L14.9403 12.2447L14.6857 12.0929C14.3745 11.9067 13.7735 11.5342 12.345 10.6236C10.8741 9.6924 8.2788 8.05755 7.3807 7.49191C7.18976 7.37464 7.04126 7.31256 7.04126 7.34705Z" fill="#00E3A5"/>
<path d="M6.65948 7.76108C6.63827 7.85766 6.56755 8.45779 6.51098 9.10621C6.38369 10.4306 6.24933 11.8103 6.08668 13.5141L5.96646 14.6799L6.59584 15.3076C6.93527 15.6525 7.98188 16.6941 8.9224 17.6254C9.85586 18.5566 11.0793 19.7707 11.6379 20.3363C12.1966 20.8951 12.6633 21.3434 12.6774 21.3296C12.6845 21.3158 12.5926 21.0606 12.4582 20.7571C12.3239 20.4605 11.8925 19.4672 11.5035 18.5566C11.1075 17.6461 10.754 16.839 10.7186 16.7631C10.6408 16.5907 8.42739 11.5136 7.50101 9.38214C6.67362 7.47136 6.70898 7.54034 6.65948 7.76108Z" fill="#00E3A5"/>
<path d="M22.7191 8.84396C22.4292 9.51997 21.5523 11.5273 20.7744 13.3139C17.7831 20.1775 17.2952 21.3019 17.3164 21.3226C17.3305 21.3364 18.7449 19.9568 20.4562 18.2599C22.1746 16.5629 23.6809 15.0798 23.8011 14.9626L24.0274 14.7418L23.9142 13.583C23.8506 12.9414 23.7516 11.9343 23.6879 11.348C23.4333 8.7129 23.3202 7.68508 23.2919 7.65059C23.2707 7.63679 23.0161 8.16795 22.7191 8.84396Z" fill="#00E3A5"/>
<path d="M7.16142 19.7776C7.06242 20.0535 6.64519 21.2124 6.23503 22.3506C5.83195 23.4888 5.4713 24.4752 5.45008 24.5373C5.40058 24.6545 5.59152 24.7649 12.3449 28.683C13.0662 29.1038 13.8795 29.5798 14.1482 29.7384C14.424 29.904 14.6503 30.0075 14.6644 29.9799C14.6927 29.8971 13.1652 22.3989 13.1157 22.3575C13.045 22.3023 7.49378 19.3154 7.42307 19.2947C7.38064 19.2809 7.26042 19.5017 7.16142 19.7776Z" fill="#00E3A5"/>
<path d="M22.3514 19.3775C22.2736 19.4258 21.0007 20.1225 19.5227 20.9226L16.8355 22.3781L16.1 25.9514C15.697 27.9173 15.3434 29.6418 15.3151 29.7798C15.2656 30.0212 15.2727 30.035 15.4141 29.9591C15.5555 29.8902 17.2598 28.8968 22.2948 25.9789L24.5718 24.6545L24.1617 23.5025C23.7869 22.4747 22.9383 20.1018 22.7191 19.5016C22.6342 19.2602 22.5564 19.2326 22.3514 19.3775Z" fill="#00E3A5"/>
<path d="M14.2401 21.7503C13.8653 22.04 13.5542 22.3298 13.5471 22.3849C13.5471 22.5091 14.9473 29.3658 14.9827 29.4003C15.0039 29.4141 16.4465 22.4815 16.4465 22.3642C16.4465 22.3091 15.0463 21.2123 14.9756 21.2123C14.9473 21.2192 14.6149 21.4537 14.2401 21.7503Z" fill="#00E3A5"/>
</svg>
