<svg width="439" height="439" viewBox="0 0 439 439" fill="none" xmlns="http://www.w3.org/2000/svg">
<path fill-rule="evenodd" clip-rule="evenodd" d="M0 253.879L0 269.747H15.8675V253.879H0ZM0.00233321 423.133L0.00233321 439H15.8698L15.8698 423.133H0.00233321ZM0 100.494L0 84.6266H15.8675V100.494H0ZM0 338.506L0 354.374H15.8675V338.506H0ZM0 185.121L0 169.254H15.8675V185.121H0ZM0 0L0 15.8675H15.8675V0H0ZM169.253 439V423.133H185.12V439H169.253ZM169.253 253.879V269.747H185.12V253.879H169.253ZM169.253 100.494V84.6266H185.12V100.494H169.253ZM169.253 338.506V354.374H185.12V338.506H169.253ZM169.253 185.121V169.254H185.12V185.121H169.253ZM169.253 0V15.8675H185.12V0H169.253ZM338.505 439V423.133H354.372V439H338.505ZM338.505 253.879V269.747H354.372V253.879H338.505ZM338.505 100.494V84.6266H354.372V100.494H338.505ZM338.505 338.506V354.374H354.372V338.506H338.505ZM338.505 185.121V169.254H354.372V185.121H338.505ZM338.505 0V15.8675H354.372V0H338.505ZM84.6274 439V423.133H100.495V439H84.6274ZM84.6274 253.879V269.747H100.495V253.879H84.6274ZM84.6274 100.494L84.6274 84.6266H100.495L100.495 100.494H84.6274ZM84.6274 338.506V354.374H100.495V338.506H84.6274ZM84.6274 185.121V169.254H100.495V185.121H84.6274ZM84.6274 0V15.8675H100.495V0H84.6274ZM253.88 439V423.133H269.747V439H253.88ZM253.88 253.879V269.747H269.747V253.879H253.88ZM253.88 100.494V84.6266H269.747V100.494H253.88ZM253.88 338.506V354.374H269.747V338.506H253.88ZM253.88 185.121V169.254H269.747V185.121H253.88ZM253.88 0V15.8675H269.747V0H253.88ZM423.133 439V423.133H439V439H423.133ZM423.133 253.879V269.747H439V253.879H423.133ZM423.133 100.494V84.6266H439V100.494H423.133ZM423.133 338.506V354.374H439V338.506H423.133ZM423.133 185.121V169.254H439V185.121H423.133ZM423.133 0V15.8675H439V0H423.133Z" fill="url(#paint0_linear_41_78)" fill-opacity="0.5"/>
<defs>
<linearGradient id="paint0_linear_41_78" x1="29.4698" y1="-11.1543" x2="67.7353" y2="446.3" gradientUnits="userSpaceOnUse">
<stop stop-color="#00E3A5"/>
<stop offset="1" stop-color="#28F5BE" stop-opacity="0"/>
</linearGradient>
</defs>
</svg>
